<svg xmlns="http://www.w3.org/2000/svg" width="500" height="439" viewBox="0 0 500 439" version="1.1"><path d="M 143 184 L 143 257 153 257 L 163 257 163 222.500 L 163 188 190 188 L 217 188 217 222.500 L 217 257 227 257 L 237 257 237 184 L 237 111 227 111 L 217 111 217 141 L 217 171 190 171 L 163 171 163 141 L 163 111 153 111 L 143 111 143 184 M 267 183.898 L 267 257 277 257 L 287 257 287 227.500 L 287 198 303.364 198 C 327.153 198, 336.795 195.586, 345.977 187.330 C 355.695 178.594, 359.619 167.538, 358.694 151.500 C 357.544 131.545, 349.514 120.626, 331.366 114.339 C 323.668 111.672, 322.896 111.605, 295.250 111.204 L 267 110.795 267 183.898 M 296.750 127.757 L 287 128.072 287 155.036 L 287 182 301.318 182 C 317.680 182, 323.458 180.746, 329.279 175.932 C 335.767 170.566, 337.500 166.049, 337.500 154.500 C 337.500 143.351, 336.512 140.536, 330.578 134.773 C 324.490 128.860, 316.148 127.130, 296.750 127.757" stroke="none" fill="#fbfbfb" fill-rule="evenodd"/><path d="M 18.716 9.904 C 17.112 12.618, 17 24.327, 17 188.769 L 17 364.730 19.073 367.365 L 21.145 370 250 370 L 478.855 370 480.927 367.365 L 483 364.730 483 188.769 C 483 24.327, 482.888 12.618, 481.284 9.904 L 479.569 7 250 7 L 20.431 7 18.716 9.904 M 143 184 L 143 257 153 257 L 163 257 163 222.500 L 163 188 190 188 L 217 188 217 222.500 L 217 257 227 257 L 237 257 237 184 L 237 111 227 111 L 217 111 217 141 L 217 171 190 171 L 163 171 163 141 L 163 111 153 111 L 143 111 143 184 M 267 183.898 L 267 257 277 257 L 287 257 287 227.500 L 287 198 303.364 198 C 327.153 198, 336.795 195.586, 345.977 187.330 C 355.695 178.594, 359.619 167.538, 358.694 151.500 C 357.544 131.545, 349.514 120.626, 331.366 114.339 C 323.668 111.672, 322.896 111.605, 295.250 111.204 L 267 110.795 267 183.898 M 296.750 127.757 L 287 128.072 287 155.036 L 287 182 301.318 182 C 317.680 182, 323.458 180.746, 329.279 175.932 C 335.767 170.566, 337.500 166.049, 337.500 154.500 C 337.500 143.351, 336.512 140.536, 330.578 134.773 C 324.490 128.860, 316.148 127.130, 296.750 127.757" stroke="none" fill="#4271c6" fill-rule="evenodd"/></svg>